<svg width="41" height="58" viewBox="0 0 41 58" fill="none" xmlns="http://www.w3.org/2000/svg">
<g filter="url(#filter0_b)">
<mask id="path-1-outside-1" maskUnits="userSpaceOnUse" x="0" y="0.947266" width="41" height="57" fill="black">
<rect fill="white" y="0.947266" width="41" height="57"/>
<path fill-rule="evenodd" clip-rule="evenodd" d="M33.1479 52.1548C36.6636 49.0786 38.751 44.7207 39.4102 39.0811H32.3423C32.3395 39.0987 32.3368 39.1162 32.334 39.1338H34.9844C34.3252 44.7734 32.2378 49.1313 28.7222 52.2075C25.7817 54.7778 22.0187 56.2657 17.433 56.6712C18.0092 56.712 18.5966 56.7324 19.1953 56.7324C25.0059 56.7324 29.6567 55.2065 33.1479 52.1548ZM19.8179 1.94727C18.9736 1.94727 18.1494 1.98682 17.3453 2.06594C22.1095 2.39551 25.9994 3.96045 29.0151 6.76074C32.4224 9.90025 34.4103 14.2528 34.979 19.8184H39.4102C38.8486 14.2275 36.8589 9.85742 33.4409 6.70801C30.0229 3.53418 25.4819 1.94727 19.8179 1.94727ZM17.4664 7.89758C14.0764 8.39097 11.3324 9.9964 9.23438 12.7139C6.69531 16.0342 5.42578 20.7583 5.42578 26.8862V32.0498C5.42578 37.8359 6.63428 42.438 9.05127 45.856C11.1307 48.7966 13.9239 50.4722 17.4309 50.8829C16.5968 50.9847 15.7097 51.0356 14.7695 51.0356C10.4238 51.0356 7.04248 49.3267 4.62549 45.9087C2.2085 42.4907 1 37.8887 1 32.1025V26.939C1 20.811 2.26953 16.0869 4.80859 12.7666C7.37207 9.44629 10.8999 7.78613 15.3921 7.78613C16.1154 7.78613 16.8069 7.82328 17.4664 7.89758Z"/>
</mask>
<path fill-rule="evenodd" clip-rule="evenodd" d="M33.1479 52.1548C36.6636 49.0786 38.751 44.7207 39.4102 39.0811H32.3423C32.3395 39.0987 32.3368 39.1162 32.334 39.1338H34.9844C34.3252 44.7734 32.2378 49.1313 28.7222 52.2075C25.7817 54.7778 22.0187 56.2657 17.433 56.6712C18.0092 56.712 18.5966 56.7324 19.1953 56.7324C25.0059 56.7324 29.6567 55.2065 33.1479 52.1548ZM19.8179 1.94727C18.9736 1.94727 18.1494 1.98682 17.3453 2.06594C22.1095 2.39551 25.9994 3.96045 29.0151 6.76074C32.4224 9.90025 34.4103 14.2528 34.979 19.8184H39.4102C38.8486 14.2275 36.8589 9.85742 33.4409 6.70801C30.0229 3.53418 25.4819 1.94727 19.8179 1.94727ZM17.4664 7.89758C14.0764 8.39097 11.3324 9.9964 9.23438 12.7139C6.69531 16.0342 5.42578 20.7583 5.42578 26.8862V32.0498C5.42578 37.8359 6.63428 42.438 9.05127 45.856C11.1307 48.7966 13.9239 50.4722 17.4309 50.8829C16.5968 50.9847 15.7097 51.0356 14.7695 51.0356C10.4238 51.0356 7.04248 49.3267 4.62549 45.9087C2.2085 42.4907 1 37.8887 1 32.1025V26.939C1 20.811 2.26953 16.0869 4.80859 12.7666C7.37207 9.44629 10.8999 7.78613 15.3921 7.78613C16.1154 7.78613 16.8069 7.82328 17.4664 7.89758Z" fill="#273469"/>
<path d="M39.4102 39.0811L40.4034 39.1971L40.5338 38.0811H39.4102V39.0811ZM33.1479 52.1548L33.8061 52.9077L33.8065 52.9074L33.1479 52.1548ZM32.3423 39.0811V38.0811H31.4858L31.3542 38.9274L32.3423 39.0811ZM32.334 39.1338L31.3462 38.9785L31.1646 40.1338H32.334V39.1338ZM34.9844 39.1338L35.9776 39.2499L36.1081 38.1338H34.9844V39.1338ZM28.7222 52.2075L29.3803 52.9604L29.3807 52.9601L28.7222 52.2075ZM17.433 56.6712L17.3449 55.6751L17.3624 57.6687L17.433 56.6712ZM17.3453 2.06594L17.2474 1.07075L17.2762 3.06356L17.3453 2.06594ZM29.0151 6.76074L28.3347 7.49354L28.3375 7.49615L29.0151 6.76074ZM34.979 19.8184L33.9842 19.92L34.076 20.8184H34.979V19.8184ZM39.4102 19.8184V20.8184H40.5156L40.4052 19.7184L39.4102 19.8184ZM33.4409 6.70801L32.7605 7.44081L32.7633 7.44342L33.4409 6.70801ZM17.4664 7.89758L17.6104 8.88715L17.5784 6.90386L17.4664 7.89758ZM9.23438 12.7139L8.44283 12.1027L8.44002 12.1064L9.23438 12.7139ZM9.05127 45.856L9.86775 45.2786L9.86775 45.2786L9.05127 45.856ZM17.4309 50.8829L17.5521 51.8755L17.5472 49.8897L17.4309 50.8829ZM4.80859 12.7666L4.01704 12.1555L4.01424 12.1592L4.80859 12.7666ZM38.4169 38.965C37.78 44.414 35.7801 48.5229 32.4894 51.4022L33.8065 52.9074C37.547 49.6344 39.7219 45.0274 40.4034 39.1971L38.4169 38.965ZM32.3423 40.0811H39.4102V38.0811H32.3423V40.0811ZM33.3219 39.2891C33.3247 39.271 33.3276 39.2529 33.3304 39.2347L31.3542 38.9274C31.3515 38.9444 31.3489 38.9614 31.3462 38.9785L33.3219 39.2891ZM32.334 40.1338H34.9844V38.1338H32.334V40.1338ZM33.9911 39.0177C33.3542 44.4668 31.3543 48.5756 28.0637 51.4549L29.3807 52.9601C33.1213 49.6871 35.2962 45.0801 35.9776 39.2499L33.9911 39.0177ZM28.064 51.4546C25.3101 53.8619 21.7585 55.2848 17.3449 55.6751L17.5211 57.6673C22.2789 57.2466 26.2534 55.6938 29.3803 52.9604L28.064 51.4546ZM19.1953 55.7324C18.6194 55.7324 18.0555 55.7128 17.5037 55.6737L17.3624 57.6687C17.9629 57.7112 18.5739 57.7324 19.1953 57.7324V55.7324ZM32.4898 51.4019C29.2235 54.2571 24.8272 55.7324 19.1953 55.7324V57.7324C25.1845 57.7324 30.09 56.156 33.8061 52.9077L32.4898 51.4019ZM17.4432 3.06114C18.2134 2.98536 19.0049 2.94727 19.8179 2.94727V0.947266C18.9424 0.947266 18.0855 0.988289 17.2474 1.07075L17.4432 3.06114ZM17.2762 3.06356C21.8507 3.38001 25.5127 4.87312 28.3347 7.49354L29.6956 6.02795C26.4862 3.04777 22.3682 1.41102 17.4143 1.06833L17.2762 3.06356ZM28.3375 7.49615C31.5296 10.4374 33.4349 14.5445 33.9842 19.92L35.9739 19.7167C35.3857 13.9611 33.3151 9.36307 29.6928 6.02533L28.3375 7.49615ZM39.4102 18.8184H34.979V20.8184H39.4102V18.8184ZM32.7633 7.44342C35.9654 10.3939 37.8727 14.5176 38.4152 19.9183L40.4052 19.7184C39.8245 13.9375 37.7524 9.32094 34.1185 5.9726L32.7633 7.44342ZM19.8179 2.94727C25.2866 2.94727 29.5654 4.47396 32.7605 7.4408L34.1214 5.97521C30.4805 2.5944 25.6773 0.947266 19.8179 0.947266V2.94727ZM17.3224 6.908C13.675 7.43886 10.6991 9.1804 8.44283 12.1028L10.0259 13.325C11.9658 10.8124 14.4778 9.34308 17.6104 8.88715L17.3224 6.908ZM8.44002 12.1064C5.71814 15.6658 4.42578 20.6371 4.42578 26.8862H6.42578C6.42578 20.8795 7.67249 16.4026 10.0287 13.3213L8.44002 12.1064ZM4.42578 26.8862V32.0498H6.42578V26.8862H4.42578ZM4.42578 32.0498C4.42578 37.9658 5.66055 42.793 8.23479 46.4333L9.86775 45.2786C7.608 42.083 6.42578 37.7061 6.42578 32.0498H4.42578ZM8.23479 46.4333C10.4743 49.6003 13.5194 51.4317 17.3146 51.8761L17.5472 49.8897C14.3284 49.5127 11.7871 47.9928 9.86775 45.2786L8.23479 46.4333ZM14.7695 52.0356C15.7455 52.0356 16.6734 51.9828 17.5521 51.8755L17.3097 49.8903C16.5202 49.9867 15.6739 50.0356 14.7695 50.0356V52.0356ZM3.80901 46.4861C6.42174 50.1808 10.1139 52.0356 14.7695 52.0356V50.0356C10.7338 50.0356 7.66322 48.4725 5.44197 45.3313L3.80901 46.4861ZM0 32.1025C0 38.0185 1.23477 42.8457 3.80901 46.4861L5.44197 45.3313C3.18222 42.1357 2 37.7588 2 32.1025H0ZM0 26.939V32.1025H2V26.939H0ZM4.01424 12.1592C1.29235 15.7185 0 20.6898 0 26.939H2C2 20.9322 3.24671 16.4553 5.60295 13.3741L4.01424 12.1592ZM15.3921 6.78613C10.6155 6.78613 6.78489 8.57048 4.01705 12.1555L5.60013 13.3777C7.95925 10.3221 11.1843 8.78613 15.3921 8.78613V6.78613ZM17.5784 6.90386C16.8785 6.82503 16.1495 6.78613 15.3921 6.78613V8.78613C16.0813 8.78613 16.7352 8.82154 17.3545 8.89129L17.5784 6.90386Z" fill="#273469" mask="url(#path-1-outside-1)"/>
</g>
<defs>
<filter id="filter0_b" x="-4" y="-3.05273" width="48.5338" height="64.7852" filterUnits="userSpaceOnUse" color-interpolation-filters="sRGB">
<feFlood flood-opacity="0" result="BackgroundImageFix"/>
<feGaussianBlur in="BackgroundImage" stdDeviation="2"/>
<feComposite in2="SourceAlpha" operator="in" result="effect1_backgroundBlur"/>
<feBlend mode="normal" in="SourceGraphic" in2="effect1_backgroundBlur" result="shape"/>
</filter>
</defs>
</svg>
