<svg width="41" height="56" viewBox="0 0 41 56" fill="none" xmlns="http://www.w3.org/2000/svg">
<g filter="url(#filter0_b)">
<mask id="path-1-outside-1" maskUnits="userSpaceOnUse" x="0.152344" y="0.679688" width="41" height="56" fill="black">
<rect fill="white" x="0.152344" y="0.679688" width="41" height="56"/>
<path fill-rule="evenodd" clip-rule="evenodd" d="M35.4351 55V54.666L22.9106 32.0342C26.1089 30.8135 28.5991 28.9702 30.3813 26.5044C32.188 24.0386 33.0913 21.1455 33.0913 17.8252C33.0913 12.6006 31.4678 8.62109 28.2207 5.88672C24.998 3.15234 20.3838 1.78516 14.3779 1.78516H1.15234V1.67969H18.8037C24.8096 1.67969 29.4238 3.04688 32.6465 5.78125C35.8936 8.51562 37.5171 12.4951 37.5171 17.7197C37.5171 21.04 36.6138 23.9331 34.8071 26.3989C33.0249 28.8647 30.5347 30.708 27.3364 31.9287L39.8608 54.5605V55H35.4351ZM8.22021 33.5356H3.79443V55H8.22021V33.5356ZM16.5798 27.6807H8.22021V7.57129H3.79443V27.7861H14.5977C15.2864 27.7861 15.9471 27.751 16.5798 27.6807Z"/>
</mask>
<path fill-rule="evenodd" clip-rule="evenodd" d="M35.4351 55V54.666L22.9106 32.0342C26.1089 30.8135 28.5991 28.9702 30.3813 26.5044C32.188 24.0386 33.0913 21.1455 33.0913 17.8252C33.0913 12.6006 31.4678 8.62109 28.2207 5.88672C24.998 3.15234 20.3838 1.78516 14.3779 1.78516H1.15234V1.67969H18.8037C24.8096 1.67969 29.4238 3.04688 32.6465 5.78125C35.8936 8.51562 37.5171 12.4951 37.5171 17.7197C37.5171 21.04 36.6138 23.9331 34.8071 26.3989C33.0249 28.8647 30.5347 30.708 27.3364 31.9287L39.8608 54.5605V55H35.4351ZM8.22021 33.5356H3.79443V55H8.22021V33.5356ZM16.5798 27.6807H8.22021V7.57129H3.79443V27.7861H14.5977C15.2864 27.7861 15.9471 27.751 16.5798 27.6807Z" fill="#273469"/>
<path d="M35.4351 54.666H36.4351V54.4078L36.31 54.1818L35.4351 54.666ZM35.4351 55H34.4351V56H35.4351V55ZM22.9106 32.0342L22.5541 31.0999L21.478 31.5106L22.0357 32.5184L22.9106 32.0342ZM30.3813 26.5044L29.5747 25.9134L29.5709 25.9186L30.3813 26.5044ZM28.2207 5.88672L27.5737 6.64923L27.5766 6.65163L28.2207 5.88672ZM1.15234 1.78516H0.152344V2.78516H1.15234V1.78516ZM1.15234 1.67969V0.679688H0.152344V1.67969H1.15234ZM32.6465 5.78125L31.9995 6.54376L32.0023 6.54616L32.6465 5.78125ZM34.8071 26.3989L34.0005 25.8079L33.9967 25.8131L34.8071 26.3989ZM27.3364 31.9287L26.9798 30.9944L25.9038 31.4052L26.4615 32.4129L27.3364 31.9287ZM39.8608 54.5605H40.8608V54.3023L40.7358 54.0763L39.8608 54.5605ZM39.8608 55V56H40.8608V55H39.8608ZM8.22021 33.5356H9.22021V32.5356H8.22021V33.5356ZM3.79443 33.5356V32.5356H2.79443V33.5356H3.79443ZM3.79443 55H2.79443V56H3.79443V55ZM8.22021 55V56H9.22021V55H8.22021ZM8.22021 27.6807H7.22021V28.6807H8.22021V27.6807ZM16.5798 27.6807L16.6902 28.6745L16.5798 26.6807V27.6807ZM8.22021 7.57129H9.22021V6.57129H8.22021V7.57129ZM3.79443 7.57129V6.57129H2.79443V7.57129H3.79443ZM3.79443 27.7861H2.79443V28.7861H3.79443V27.7861ZM34.4351 54.666V55H36.4351V54.666H34.4351ZM22.0357 32.5184L34.5601 55.1502L36.31 54.1818L23.7856 31.55L22.0357 32.5184ZM29.5709 25.9186C27.9167 28.2073 25.5938 29.9397 22.5541 31.0999L23.2672 32.9684C26.6239 31.6873 29.2816 29.7331 31.1918 27.0902L29.5709 25.9186ZM32.0913 17.8252C32.0913 20.9523 31.2447 23.634 29.5747 25.9134L31.188 27.0954C33.1312 24.4432 34.0913 21.3387 34.0913 17.8252H32.0913ZM27.5766 6.65163C30.5467 9.15282 32.0913 12.8212 32.0913 17.8252H34.0913C34.0913 12.38 32.3888 8.08937 28.8648 5.12181L27.5766 6.65163ZM14.3779 2.78516C20.2451 2.78516 24.5948 4.12164 27.5737 6.64923L28.8677 5.12421C25.4013 2.18305 20.5224 0.785156 14.3779 0.785156V2.78516ZM1.15234 2.78516H14.3779V0.785156H1.15234V2.78516ZM2.15234 1.78516V1.67969H0.152344V1.78516H2.15234ZM1.15234 2.67969H18.8037V0.679688H1.15234V2.67969ZM18.8037 2.67969C24.6709 2.67969 29.0206 4.01617 31.9995 6.54376L33.2935 5.01874C29.8271 2.07758 24.9482 0.679688 18.8037 0.679688V2.67969ZM32.0023 6.54616C34.9725 9.04735 36.5171 12.7157 36.5171 17.7197H38.5171C38.5171 12.2745 36.8146 7.9839 33.2906 5.01634L32.0023 6.54616ZM36.5171 17.7197C36.5171 20.8468 35.6705 23.5285 34.0005 25.8079L35.6138 26.9899C37.557 24.3377 38.5171 21.2332 38.5171 17.7197H36.5171ZM33.9967 25.8131C32.3425 28.1018 30.0196 29.8342 26.9798 30.9944L27.693 32.863C31.0497 31.5818 33.7073 29.6277 35.6176 26.9847L33.9967 25.8131ZM26.4615 32.4129L38.9859 55.0447L40.7358 54.0763L28.2114 31.4445L26.4615 32.4129ZM38.8608 54.5605V55H40.8608V54.5605H38.8608ZM39.8608 54H35.4351V56H39.8608V54ZM8.22021 32.5356H3.79443V34.5356H8.22021V32.5356ZM2.79443 33.5356V55H4.79443V33.5356H2.79443ZM8.22021 54H3.79443V56H8.22021V54ZM7.22021 33.5356V55H9.22021V33.5356H7.22021ZM8.22021 28.6807H16.5798V26.6807H8.22021V28.6807ZM7.22021 7.57129V27.6807H9.22021V7.57129H7.22021ZM8.22021 6.57129H3.79443V8.57129H8.22021V6.57129ZM2.79443 7.57129V27.7861H4.79443V7.57129H2.79443ZM3.79443 28.7861H14.5977V26.7861H3.79443V28.7861ZM14.5977 28.7861C15.3203 28.7861 16.018 28.7492 16.6902 28.6745L16.4693 26.6868C15.8762 26.7527 15.2525 26.7861 14.5977 26.7861V28.7861Z" fill="#273469" mask="url(#path-1-outside-1)"/>
</g>
<defs>
<filter id="filter0_b" x="-3.84766" y="-3.32031" width="48.7085" height="63.3203" filterUnits="userSpaceOnUse" color-interpolation-filters="sRGB">
<feFlood flood-opacity="0" result="BackgroundImageFix"/>
<feGaussianBlur in="BackgroundImage" stdDeviation="2"/>
<feComposite in2="SourceAlpha" operator="in" result="effect1_backgroundBlur"/>
<feBlend mode="normal" in="SourceGraphic" in2="effect1_backgroundBlur" result="shape"/>
</filter>
</defs>
</svg>
