<svg width="41" height="57" viewBox="0 0 41 57" fill="none" xmlns="http://www.w3.org/2000/svg">
<g filter="url(#filter0_b)">
<mask id="path-1-outside-1" maskUnits="userSpaceOnUse" x="0.126953" y="0.732422" width="41" height="57" fill="black">
<rect fill="white" x="0.126953" y="0.732422" width="41" height="57"/>
<path fill-rule="evenodd" clip-rule="evenodd" d="M39.7256 37.9873V1.73242H32.6577V1.78516H35.2998V38.04C35.2754 43.0693 33.6885 47.1831 30.5391 50.3813C27.5208 53.4703 23.455 55.2498 18.3416 55.7197C18.9956 55.7633 19.6661 55.7852 20.353 55.7852L22.2207 55.7119C27.5918 55.3213 31.8398 53.5269 34.9648 50.3286C38.1143 47.1304 39.7012 43.0166 39.7256 37.9873ZM1.12695 1.73242V1.78516H3.65918V37.8936C3.65918 41.751 4.72119 44.7539 6.84521 46.9023C8.96924 49.0264 11.9966 50.0884 15.9272 50.0884C16.7892 50.0884 17.607 50.0386 18.3807 49.9389C15.3948 49.6333 13.0249 48.6035 11.271 46.8496C9.14697 44.7012 8.08496 41.6982 8.08496 37.8408V1.73242H1.12695Z"/>
</mask>
<path fill-rule="evenodd" clip-rule="evenodd" d="M39.7256 37.9873V1.73242H32.6577V1.78516H35.2998V38.04C35.2754 43.0693 33.6885 47.1831 30.5391 50.3813C27.5208 53.4703 23.455 55.2498 18.3416 55.7197C18.9956 55.7633 19.6661 55.7852 20.353 55.7852L22.2207 55.7119C27.5918 55.3213 31.8398 53.5269 34.9648 50.3286C38.1143 47.1304 39.7012 43.0166 39.7256 37.9873ZM1.12695 1.73242V1.78516H3.65918V37.8936C3.65918 41.751 4.72119 44.7539 6.84521 46.9023C8.96924 49.0264 11.9966 50.0884 15.9272 50.0884C16.7892 50.0884 17.607 50.0386 18.3807 49.9389C15.3948 49.6333 13.0249 48.6035 11.271 46.8496C9.14697 44.7012 8.08496 41.6982 8.08496 37.8408V1.73242H1.12695Z" fill="#273469"/>
<path d="M39.7256 1.73242H40.7256V0.732422H39.7256V1.73242ZM39.7256 37.9873L40.7256 37.9922V37.9873H39.7256ZM32.6577 1.73242V0.732422H31.6577V1.73242H32.6577ZM32.6577 1.78516H31.6577V2.78516H32.6577V1.78516ZM35.2998 1.78516H36.2998V0.785156H35.2998V1.78516ZM35.2998 38.04L36.2998 38.0449V38.04H35.2998ZM30.5391 50.3813L29.8265 49.6797L29.8238 49.6825L30.5391 50.3813ZM18.3416 55.7197L18.2501 54.7239L18.275 56.7175L18.3416 55.7197ZM20.353 55.7852V56.7852H20.3726L20.3922 56.7844L20.353 55.7852ZM22.2207 55.7119L22.2599 56.7111L22.2766 56.7105L22.2932 56.7093L22.2207 55.7119ZM34.9648 50.3286L34.2523 49.627L34.2496 49.6297L34.9648 50.3286ZM1.12695 1.78516H0.126953V2.78516H1.12695V1.78516ZM1.12695 1.73242V0.732422H0.126953V1.73242H1.12695ZM3.65918 1.78516H4.65918V0.785156H3.65918V1.78516ZM6.84521 46.9023L6.13407 47.6054L6.13811 47.6095L6.84521 46.9023ZM18.3807 49.9389L18.5084 50.9307L18.4825 48.9441L18.3807 49.9389ZM11.271 46.8496L10.5598 47.5527L10.5639 47.5567L11.271 46.8496ZM8.08496 1.73242H9.08496V0.732422H8.08496V1.73242ZM38.7256 1.73242V37.9873H40.7256V1.73242H38.7256ZM32.6577 2.73242H39.7256V0.732422H32.6577V2.73242ZM33.6577 1.78516V1.73242H31.6577V1.78516H33.6577ZM32.6577 2.78516H35.2998V0.785156H32.6577V2.78516ZM34.2998 1.78516V38.04H36.2998V1.78516H34.2998ZM34.2998 38.0352C34.2765 42.8378 32.7702 46.6904 29.8265 49.6797L31.2516 51.083C34.6067 47.6758 36.2743 43.3008 36.2998 38.0449L34.2998 38.0352ZM29.8238 49.6825C27.0018 52.5706 23.1738 54.2714 18.2501 54.7239L18.4331 56.7155C23.7362 56.2281 28.0399 54.37 31.2543 51.0802L29.8238 49.6825ZM20.353 54.7852C19.6873 54.7852 19.039 54.764 18.4081 54.7219L18.275 56.7175C18.9523 56.7627 19.645 56.7852 20.353 56.7852V54.7852ZM22.1815 54.7127L20.3138 54.7859L20.3922 56.7844L22.2599 56.7111L22.1815 54.7127ZM34.2496 49.6297C31.3286 52.6192 27.328 54.3378 22.1482 54.7145L22.2932 56.7093C27.8556 56.3047 32.3511 54.4345 35.6801 51.0275L34.2496 49.6297ZM38.7256 37.9825C38.7023 42.7851 37.196 46.6376 34.2523 49.627L35.6774 51.0303C39.0325 47.6231 40.7001 43.2481 40.7256 37.9922L38.7256 37.9825ZM2.12695 1.78516V1.73242H0.126953V1.78516H2.12695ZM1.12695 2.78516H3.65918V0.785156H1.12695V2.78516ZM2.65918 1.78516V37.8936H4.65918V1.78516H2.65918ZM2.65918 37.8936C2.65918 41.9379 3.7775 45.2217 6.13408 47.6054L7.55635 46.1993C5.66489 44.2861 4.65918 41.564 4.65918 37.8936H2.65918ZM6.13811 47.6095C8.50231 49.9737 11.8165 51.0884 15.9272 51.0884V49.0884C12.1767 49.0884 9.43617 48.0791 7.55232 46.1952L6.13811 47.6095ZM15.9272 51.0884C16.8275 51.0884 17.6882 51.0364 18.5084 50.9307L18.253 48.9471C17.5257 49.0408 16.7508 49.0884 15.9272 49.0884V51.0884ZM10.5639 47.5567C12.5127 49.5055 15.114 50.6098 18.2789 50.9337L18.4825 48.9441C15.6757 48.6568 13.5372 47.7016 11.9781 46.1425L10.5639 47.5567ZM7.08496 37.8408C7.08496 41.8852 8.20328 45.169 10.5599 47.5527L11.9821 46.1466C10.0907 44.2334 9.08496 41.5113 9.08496 37.8408H7.08496ZM7.08496 1.73242V37.8408H9.08496V1.73242H7.08496ZM1.12695 2.73242H8.08496V0.732422H1.12695V2.73242Z" fill="#273469" mask="url(#path-1-outside-1)"/>
</g>
<defs>
<filter id="filter0_b" x="-3.87305" y="-3.26758" width="48.5986" height="64.0527" filterUnits="userSpaceOnUse" color-interpolation-filters="sRGB">
<feFlood flood-opacity="0" result="BackgroundImageFix"/>
<feGaussianBlur in="BackgroundImage" stdDeviation="2"/>
<feComposite in2="SourceAlpha" operator="in" result="effect1_backgroundBlur"/>
<feBlend mode="normal" in="SourceGraphic" in2="effect1_backgroundBlur" result="shape"/>
</filter>
</defs>
</svg>
