<svg width="49" height="57" viewBox="0 0 49 57" fill="none" xmlns="http://www.w3.org/2000/svg">
<g filter="url(#filter0_b)">
<mask id="path-1-outside-1" maskUnits="userSpaceOnUse" x="0.549316" y="0.732422" width="48" height="56" fill="black">
<rect fill="white" x="0.549316" y="0.732422" width="48" height="56"/>
<path fill-rule="evenodd" clip-rule="evenodd" d="M38.3373 1.78516H41.9224L23.5386 35.2202V55.0527H27.9644V35.1675L46.3481 1.73242H38.3647L38.3373 1.78516ZM22.2553 24.2607L20.0229 28.5552L6.18018 1.78516H2.57831L2.54932 1.73242H10.606L22.2553 24.2607Z"/>
</mask>
<path fill-rule="evenodd" clip-rule="evenodd" d="M38.3373 1.78516H41.9224L23.5386 35.2202V55.0527H27.9644V35.1675L46.3481 1.73242H38.3647L38.3373 1.78516ZM22.2553 24.2607L20.0229 28.5552L6.18018 1.78516H2.57831L2.54932 1.73242H10.606L22.2553 24.2607Z" fill="#273469"/>
<path d="M38.3373 1.78516L37.4501 1.32393L36.6905 2.78516H38.3373V1.78516ZM41.9224 1.78516L42.7986 2.26696L43.6134 0.785156H41.9224V1.78516ZM23.5386 35.2202L22.6623 34.7384L22.5386 34.9634V35.2202H23.5386ZM23.5386 55.0527H22.5386V56.0527H23.5386V55.0527ZM27.9644 55.0527V56.0527H28.9644V55.0527H27.9644ZM27.9644 35.1675L27.0881 34.6857L26.9644 34.9107V35.1675H27.9644ZM46.3481 1.73242L47.2244 2.21423L48.0392 0.732422H46.3481V1.73242ZM38.3647 1.73242V0.732422H37.7575L37.4775 1.27119L38.3647 1.73242ZM20.0229 28.5552L19.1347 29.0145L20.0206 30.7278L20.9102 29.0164L20.0229 28.5552ZM22.2553 24.2607L23.1426 24.722L23.3818 24.262L23.1436 23.8014L22.2553 24.2607ZM6.18018 1.78516L7.06844 1.32583L6.78886 0.785156H6.18018V1.78516ZM2.57831 1.78516L1.70204 2.26696L1.98696 2.78516H2.57831V1.78516ZM2.54932 1.73242V0.732422H0.858288L1.67304 2.21423L2.54932 1.73242ZM10.606 1.73242L11.4942 1.2731L11.2146 0.732422H10.606V1.73242ZM38.3373 2.78516H41.9224V0.785156H38.3373V2.78516ZM41.0461 1.30335L22.6623 34.7384L24.4149 35.702L42.7986 2.26696L41.0461 1.30335ZM22.5386 35.2202V55.0527H24.5386V35.2202H22.5386ZM27.9644 54.0527H23.5386V56.0527H27.9644V54.0527ZM26.9644 35.1675V55.0527H28.9644V35.1675H26.9644ZM45.4719 1.25061L27.0881 34.6857L28.8406 35.6493L47.2244 2.21423L45.4719 1.25061ZM38.3647 2.73242H46.3481V0.732422H38.3647V2.73242ZM39.2246 2.24638L39.252 2.19365L37.4775 1.27119L37.4501 1.32393L39.2246 2.24638ZM20.9102 29.0164L23.1426 24.722L21.3681 23.7995L19.1357 28.0939L20.9102 29.0164ZM5.29191 2.24448L19.1347 29.0145L20.9112 28.0959L7.06844 1.32583L5.29191 2.24448ZM2.57831 2.78516H6.18018V0.785156H2.57831V2.78516ZM3.45459 1.30335L3.42559 1.25061L1.67304 2.21423L1.70204 2.26696L3.45459 1.30335ZM2.54932 2.73242H10.606V0.732422H2.54932V2.73242ZM9.71769 2.19175L21.3671 24.7201L23.1436 23.8014L11.4942 1.2731L9.71769 2.19175Z" fill="#273469" mask="url(#path-1-outside-1)"/>
</g>
<defs>
<filter id="filter0_b" x="-3.14172" y="-3.26758" width="55.1809" height="63.3203" filterUnits="userSpaceOnUse" color-interpolation-filters="sRGB">
<feFlood flood-opacity="0" result="BackgroundImageFix"/>
<feGaussianBlur in="BackgroundImage" stdDeviation="2"/>
<feComposite in2="SourceAlpha" operator="in" result="effect1_backgroundBlur"/>
<feBlend mode="normal" in="SourceGraphic" in2="effect1_backgroundBlur" result="shape"/>
</filter>
</defs>
</svg>
